<svg xmlns="http://www.w3.org/2000/svg" width="30" height="30" viewBox="0 0 30 30" fill="none">
  <path d="M0.5 2.28577H6.28571C10.4278 2.28577 13.7857 5.64363 13.7857 9.78577V13.7858H8C3.85787 13.7858 0.5 10.4279 0.5 6.28577V2.28577Z" stroke="#DAA520"/>
  <path d="M16.2144 16.2142H22.0001C26.1422 16.2142 29.5001 19.5721 29.5001 23.7142V27.7142H23.7144C19.5722 27.7142 16.2144 24.3564 16.2144 20.2142V16.2142Z" stroke="#DAA520"/>
  <path d="M16.2144 8C16.2144 3.85787 19.5722 0.5 23.7144 0.5H27.7144V6.28571C27.7144 10.4278 24.3565 13.7857 20.2144 13.7857H16.2144V8Z" stroke="#DAA520"/>
  <path d="M2.28564 23.7142C2.28564 19.5721 5.64351 16.2142 9.78564 16.2142H13.7856V21.9999C13.7856 26.1421 10.4278 29.4999 6.28564 29.4999H2.28564V23.7142Z" stroke="#DAA520"/>
</svg>